<svg id="Layer_1" enable-background="new 0 0 512 512" height="512" viewBox="0 0 512 512" width="512" xmlns="http://www.w3.org/2000/svg"><g><g clip-rule="evenodd" fill-rule="evenodd"><path d="m512 377.763c0 13.749-11.254 24.975-25.002 24.975h-461.996c-13.748-.001-25.002-11.226-25.002-24.975v-263.03c0-13.748 11.254-24.973 25.002-24.973h461.996c13.748 0 25.002 11.226 25.002 24.974z" fill="#cbe2ff"/><path d="m512 377.763c0 13.749-11.254 24.975-25.002 24.975h-29.991c13.749 0 25.002-11.226 25.002-24.975v-263.03c0-13.748-11.253-24.974-25.002-24.974h29.991c13.748 0 25.002 11.226 25.002 24.974z" fill="#9dc6fb"/><path d="m214.217 402.737 44.533-10.488 39.459 10.488 25.001 60.009-64.46 9.496-69.535-9.496z" fill="#d5c6e4"/><path d="m268.217 402.737h29.992l25.001 60.009h-29.991z" fill="#c6b4da"/><path d="m512 377.763c0 13.749-11.254 24.975-25.002 24.975h-461.996c-13.748-.001-25.002-11.226-25.002-24.975v-30.019h512zm-353.711 84.983h195.819c3.316 0 6.009 2.693 6.009 6.01v18.001c0 3.289-2.692 5.982-6.009 5.982h-195.819c-3.288 0-6.01-2.692-6.01-5.982v-18.001c0-3.316 2.722-6.01 6.01-6.01z" fill="#e2d8ec"/><path d="m512 377.763c0 13.749-11.254 24.975-25.002 24.975h-29.991c13.749 0 25.002-11.226 25.002-24.975v-30.019h29.991zm-187.883 84.983h29.991c3.316 0 6.009 2.693 6.009 6.01v18.001c0 3.289-2.692 5.982-6.009 5.982h-29.991c3.288 0 6.01-2.692 6.01-5.982v-18.001c0-3.316-2.722-6.01-6.01-6.01z" fill="#d5c6e4"/></g><path d="m162.257 382.752c-4.138 0-7.512-3.373-7.512-7.512s3.374-7.483 7.512-7.483h33.902c4.139 0 7.484 3.345 7.484 7.483 0 4.139-3.346 7.512-7.484 7.512zm179.096 0c-4.139 0-7.484-3.373-7.484-7.512s3.346-7.483 7.484-7.483h8.418c4.139 0 7.484 3.345 7.484 7.483 0 4.139-3.346 7.512-7.484 7.512zm-38.411 0c-4.14 0-7.484-3.373-7.484-7.512s3.345-7.483 7.484-7.483h8.419c4.139 0 7.483 3.345 7.483 7.483 0 4.139-3.345 7.512-7.483 7.512zm-38.382 0c-4.139 0-7.512-3.373-7.512-7.512s3.373-7.483 7.512-7.483h8.391c4.139 0 7.512 3.345 7.512 7.483 0 4.139-3.373 7.512-7.512 7.512zm-38.409 0c-4.139 0-7.483-3.373-7.483-7.512s3.345-7.483 7.483-7.483h8.391c4.167 0 7.512 3.345 7.512 7.483 0 4.139-3.345 7.512-7.512 7.512z" fill="#c6b4da"/><path clip-rule="evenodd" d="m318.931 19.262h173.085c10.998 0 19.984 9.014 19.984 20.013v158.062c0 10.999-8.986 19.985-19.984 19.985h-45.582c-4.167 0-7.285 2.041-9.213 5.074l-28.517 44.872c-.992 1.559-2.126 2.211-3.231 2.211s-2.239-.652-3.231-2.211l-28.518-44.872c-1.928-3.033-5.045-5.074-9.213-5.074h-45.58c-10.999 0-19.985-8.986-19.985-19.985v-158.063c-.001-10.999 8.986-20.012 19.985-20.012z" fill="#f9f6f6" fill-rule="evenodd"/><path clip-rule="evenodd" d="m461.996 19.262h30.02c10.998 0 19.984 9.014 19.984 20.013v158.062c0 10.999-8.986 19.985-19.984 19.985h-30.02c10.999 0 20.013-8.986 20.013-19.985v-158.063c0-10.999-9.014-20.012-20.013-20.012z" fill="#e2d8ec" fill-rule="evenodd"/><path clip-rule="evenodd" d="m405.473 185.969h-24.011c-3.288 0-5.98-2.721-5.98-6.009v-30.614c0-7.597.623-9.894-4.592-14.882-9.496-9.101-15.421-21.913-15.421-36.114 0-20.268 12.075-37.758 29.453-45.582 4.082-1.842 5.612.426 5.556 3.884v30.558c0 3.799 2.013 6.832 5.527 8.306l3.94 1.673c3.77 1.587 7.285 1.587 11.055 0l3.94-1.673c3.515-1.474 5.527-4.507 5.527-8.306v-30.559c-.057-3.458 1.503-5.726 5.557-3.884 17.376 7.824 29.452 25.314 29.452 45.582 0 14.201-5.925 27.014-15.421 36.114-5.216 4.988-4.593 7.285-4.593 14.882v30.614c0 3.288-2.692 6.009-5.98 6.009h-24.009z" fill="#80b4fb" fill-rule="evenodd"/><path d="m397.961 185.969v-47.622c0-4.139 3.373-7.483 7.512-7.483s7.512 3.345 7.512 7.483v47.622z" fill="#3e6dab"/><path d="m298.945 284.758c-4.139 0-7.512-3.346-7.512-7.484 0-4.139 3.373-7.512 7.512-7.512h65.991c4.139 0 7.512 3.373 7.512 7.512s-3.373 7.484-7.512 7.484zm0 30.019c-4.139 0-7.512-3.373-7.512-7.512s3.373-7.512 7.512-7.512h177.99c4.138 0 7.512 3.373 7.512 7.512s-3.374 7.512-7.512 7.512z" fill="#78c2a4"/><path d="m212.94 239.8c0 4.139-3.345 7.512-7.512 7.512-4.139 0-7.483-3.373-7.483-7.512v-46.659c0-15.874-6.491-30.302-16.979-40.763-10.46-10.488-24.916-16.979-40.79-16.979-15.875 0-30.304 6.49-40.764 16.951-10.488 10.488-16.979 24.916-16.979 40.79v77.727c0 4.168 1.701 7.966 4.45 10.715 2.75 2.75 6.549 4.451 10.715 4.451 4.139 0 7.484 3.345 7.484 7.512 0 4.139-3.346 7.484-7.484 7.484-8.305 0-15.846-3.373-21.316-8.846-5.471-5.471-8.844-13.011-8.844-21.316v-77.727c0-20.013 8.164-38.211 21.345-51.392 13.21-13.183 31.38-21.347 51.394-21.347 20.013 0 38.211 8.164 51.392 21.347 13.182 13.181 21.373 31.379 21.373 51.392v46.66z" fill="#2b4d66"/><path clip-rule="evenodd" d="m197.945 193.141h29.085c8.476 0 15.42 6.944 15.42 15.421v30.842c0 8.476-6.944 15.392-15.42 15.392h-23.075c-3.316 0-6.01-2.692-6.01-5.98zm-115.512 0h-29.083c-8.476 0-15.422 6.944-15.422 15.421v30.842c0 8.476 6.946 15.392 15.422 15.392h29.083z" fill="#4a80aa" fill-rule="evenodd"/><path clip-rule="evenodd" d="m197.945 193.141h29.085c8.476 0 15.42 6.944 15.42 15.421v30.842c0 8.476-6.944 15.392-15.42 15.392h-23.075c-.964 0-1.843-.198-2.637-.595 6.407-1.871 11.112-7.824 11.112-14.797v-30.842c0-8.164-6.435-14.91-14.485-15.393zm-115.512 0h-29.083c-.313 0-.624.028-.907.028v61.598c.283.028.595.028.907.028h29.083z" fill="#407093" fill-rule="evenodd"/><path clip-rule="evenodd" d="m113.019 278.124h25.994c8.477 0 15.393 6.917 15.393 15.421 0 8.477-6.916 15.394-15.393 15.394h-25.994c-8.476 0-15.421-6.917-15.421-15.394 0-8.504 6.945-15.421 15.421-15.421z" fill="#dd636e" fill-rule="evenodd"/></g></svg>